<?xml version="1.0" encoding="UTF-8" standalone="no"?>
<!-- Created with Inkscape (http://www.inkscape.org/) -->

<svg
   xmlns:dc="http://purl.org/dc/elements/1.1/"
   xmlns:cc="http://creativecommons.org/ns#"
   xmlns:rdf="http://www.w3.org/1999/02/22-rdf-syntax-ns#"
   xmlns:svg="http://www.w3.org/2000/svg"
   xmlns="http://www.w3.org/2000/svg"
   xmlns:sodipodi="http://sodipodi.sourceforge.net/DTD/sodipodi-0.dtd"
   xmlns:inkscape="http://www.inkscape.org/namespaces/inkscape"
   version="1.1"
   id="svg2"
   xml:space="preserve"
   width="6.9747672cm"
   height="4.7376719cm"
   sodipodi:docname="EUflagYellow.svg"
   inkscape:version="0.92.5 (2060ec1f9f, 2020-04-08)"><metadata
   id="metadata34"><rdf:RDF><cc:Work
       rdf:about=""><dc:format>image/svg+xml</dc:format><dc:type
         rdf:resource="http://purl.org/dc/dcmitype/StillImage" /><dc:title></dc:title></cc:Work></rdf:RDF></metadata><defs
   id="defs32" /><sodipodi:namedview
   pagecolor="#ffffff"
   bordercolor="#666666"
   borderopacity="1"
   objecttolerance="10"
   gridtolerance="10"
   guidetolerance="10"
   inkscape:pageopacity="0"
   inkscape:pageshadow="2"
   inkscape:window-width="1680"
   inkscape:window-height="986"
   id="namedview30"
   showgrid="false"
   fit-margin-top="0"
   fit-margin-left="0"
   fit-margin-right="0"
   fit-margin-bottom="0"
   inkscape:zoom="0.79487916"
   inkscape:cx="-96.083777"
   inkscape:cy="207.67455"
   inkscape:window-x="1920"
   inkscape:window-y="27"
   inkscape:window-maximized="1"
   inkscape:current-layer="g10" />
  <g
   id="g10"
   inkscape:groupmode="layer"
   inkscape:label="flag_yellow_"
   transform="matrix(1.3333333,0,0,-1.3333333,-198.468,680.74532)"><path
   d="M 148.851,510.559 H 346.56094 V 376.26278 H 148.851 Z"
   style="fill:#ffffff;fill-opacity:1;fill-rule:nonzero;stroke:none;stroke-width:0.67032814"
   id="path12"
   inkscape:connector-curvature="0" /><path
   d="M 152.65243,506.87689 H 342.75884 V 380.13794 H 152.65243 Z"
   style="fill:#254aa5;fill-opacity:1;fill-rule:nonzero;stroke:none;stroke-width:0.67032814"
   id="path14"
   inkscape:connector-curvature="0" /><g
   id="g16"
   transform="matrix(0.67032815,0,0,0.67032815,243.65504,479.26279)"><path
     d="M 0,0 5.984,4.367 11.969,0 9.691,7.062 15.77,11.43 H 8.277 L 5.984,18.578 3.691,11.422 -3.797,11.43 2.277,7.062 Z"
     style="fill:#fff200;fill-opacity:1;fill-rule:nonzero;stroke:none"
     id="path18"
     inkscape:connector-curvature="0" /></g><g
   id="g20"
   transform="matrix(0.67032815,0,0,0.67032815,222.89578,473.68546)"><path
     d="M 0,0 5.984,4.367 11.965,0 9.691,7.062 15.766,11.43 H 8.273 L 5.98,18.586 3.688,11.422 -3.801,11.43 2.273,7.062 Z"
     style="fill:#fff200;fill-opacity:1;fill-rule:nonzero;stroke:none"
     id="path22"
     inkscape:connector-curvature="0" /></g><g
   id="g24"
   transform="matrix(0.67032815,0,0,0.67032815,211.71752,470.92035)"><path
     d="m 0,0 -2.293,-7.164 -7.488,0.008 6.074,-4.367 -2.277,-7.063 5.984,4.367 5.984,-4.367 -2.277,7.063 6.074,4.367 H 2.293 Z"
     style="fill:#fff200;fill-opacity:1;fill-rule:nonzero;stroke:none"
     id="path26"
     inkscape:connector-curvature="0" /></g><g
   id="g28"
   transform="matrix(0.67032815,0,0,0.67032815,206.14542,440.65604)"><path
     d="M 0,0 5.98,-4.367 3.707,2.695 9.781,7.062 H 2.293 L 0,14.219 -2.293,7.047 -9.785,7.062 -3.707,2.695 -5.984,-4.367 Z"
     style="fill:#fff200;fill-opacity:1;fill-rule:nonzero;stroke:none"
     id="path30"
     inkscape:connector-curvature="0" /></g><g
   id="g32"
   transform="matrix(0.67032815,0,0,0.67032815,213.25459,424.59438)"><path
     d="M 0,0 -2.293,7.156 -4.586,-0.008 -12.074,0 -6,-4.367 -8.277,-11.43 -2.293,-7.055 3.691,-11.43 1.414,-4.367 7.488,0 Z"
     style="fill:#fff200;fill-opacity:1;fill-rule:nonzero;stroke:none"
     id="path34"
     inkscape:connector-curvature="0" /></g><g
   id="g36"
   transform="matrix(0.67032815,0,0,0.67032815,228.47311,409.37585)"><path
     d="M 0,0 -2.293,7.148 -4.582,-0.008 -12.074,0 -6,-4.367 -8.273,-11.43 -2.289,-7.062 3.691,-11.43 1.418,-4.367 7.492,0 Z"
     style="fill:#fff200;fill-opacity:1;fill-rule:nonzero;stroke:none"
     id="path38"
     inkscape:connector-curvature="0" /></g><g
   id="g40"
   transform="matrix(0.67032815,0,0,0.67032815,249.20616,403.86133)"><path
     d="M 0,0 -2.293,7.156 -4.582,-0.008 -12.074,0 -6,-4.367 -8.273,-11.43 -2.289,-7.062 3.691,-11.43 1.414,-4.367 7.492,0 Z"
     style="fill:#fff200;fill-opacity:1;fill-rule:nonzero;stroke:none"
     id="path42"
     inkscape:connector-curvature="0" /></g><g
   id="g44"
   transform="matrix(0.67032815,0,0,0.67032815,269.93921,409.37585)"><path
     d="M 0,0 -2.289,7.148 -4.586,-0.008 -12.07,0 -6,-4.367 -8.273,-11.43 -2.289,-7.062 3.695,-11.43 1.414,-4.367 7.492,0 Z"
     style="fill:#fff200;fill-opacity:1;fill-rule:nonzero;stroke:none"
     id="path46"
     inkscape:connector-curvature="0" /></g><g
   id="g48"
   transform="matrix(0.67032815,0,0,0.67032815,285.16297,424.59438)"><path
     d="M 0,0 -2.297,7.156 -4.594,-0.008 -12.078,0 -6,-4.367 -8.281,-11.43 -2.297,-7.055 3.688,-11.43 1.406,-4.367 7.484,0 Z"
     style="fill:#fff200;fill-opacity:1;fill-rule:nonzero;stroke:none"
     id="path50"
     inkscape:connector-curvature="0" /></g><g
   id="g52"
   transform="matrix(0.67032815,0,0,0.67032815,295.69449,445.44788)"><path
     d="M 0,0 H -7.492 L -9.789,7.156 -12.078,-0.008 -19.57,0 l 6.078,-4.367 -2.274,-7.063 5.977,4.375 5.984,-4.375 -2.273,7.063 z"
     style="fill:#fff200;fill-opacity:1;fill-rule:nonzero;stroke:none"
     id="path54"
     inkscape:connector-curvature="0" /></g><g
   id="g56"
   transform="matrix(0.67032815,0,0,0.67032815,279.61185,458.52451)"><path
     d="M 0,0 5.984,4.367 11.969,0 9.688,7.062 l 6.078,4.36 H 8.281 l -2.297,7.156 -2.296,-7.164 -7.485,0.008 6.078,-4.36 z"
     style="fill:#fff200;fill-opacity:1;fill-rule:nonzero;stroke:none"
     id="path58"
     inkscape:connector-curvature="0" /></g><g
   id="g60"
   transform="matrix(0.67032815,0,0,0.67032815,268.46241,486.13888)"><path
   d="m 0,0 -2.289,-7.164 -7.492,0.016 6.07,-4.375 -2.273,-7.063 5.992,4.375 5.976,-4.375 -2.273,7.063 6.078,4.375 h -7.5 z"
   style="fill:#fff200;fill-opacity:1;fill-rule:nonzero;stroke:none"
   id="path62"
   inkscape:connector-curvature="0" />
</g>
</g>
</svg>